<svg width="28" height="28" viewBox="0 0 28 28" fill="none" xmlns="http://www.w3.org/2000/svg">
<path d="M0.964239 25.6218L8.51624 18.0698C6.70145 15.8911 5.79647 13.0966 5.98958 10.2677C6.18268 7.43873 7.45899 4.79315 9.553 2.88128C11.647 0.969401 14.3975 -0.0615654 17.2323 0.00284618C20.0671 0.0672578 22.7679 1.22209 24.7729 3.2271C26.7779 5.23211 27.9327 7.93293 27.9972 10.7677C28.0616 13.6025 27.0306 16.353 25.1187 18.447C23.2068 20.541 20.5613 21.8173 17.7323 22.0104C14.9034 22.2035 12.1089 21.2986 9.93024 19.4838L2.37824 27.0358L0.964239 25.6218ZM25.9642 11.0358C25.9642 9.25573 25.4364 7.51567 24.4475 6.03563C23.4585 4.55559 22.0529 3.40203 20.4084 2.72084C18.7639 2.03966 16.9543 1.86143 15.2084 2.20869C13.4626 2.55596 11.859 3.41313 10.6003 4.6718C9.34161 5.93047 8.48444 7.53412 8.13717 9.27995C7.7899 11.0258 7.96813 12.8354 8.64932 14.4799C9.33051 16.1244 10.4841 17.5301 11.9641 18.519C13.4441 19.5079 15.1842 20.0358 16.9642 20.0358C19.3504 20.0331 21.638 19.0841 23.3253 17.3968C25.0125 15.7095 25.9616 13.4219 25.9642 11.0358Z" fill="#ADA0F8" fill-opacity="0.5"/>
</svg>
