<svg width="9" height="7" viewBox="0 0 9 7" fill="none" xmlns="http://www.w3.org/2000/svg">
<path d="M1.62509 0.238146C1.22938 -0.103296 0.615524 -0.0741048 0.254004 0.303347C-0.107517 0.680799 -0.0798028 1.26358 0.315904 1.60502L2.58338 3.56154L0.458555 5.39498C0.0628473 5.73642 0.0351335 6.3192 0.396654 6.69665C0.758174 7.07411 1.37203 7.1033 1.76774 6.76185L4.03002 4.80981L6.29231 6.76185C6.68801 7.1033 7.30187 7.07411 7.66339 6.69665C8.02491 6.3192 7.99719 5.73642 7.60149 5.39498L5.47667 3.56154L7.74414 1.60502C8.13984 1.26358 8.16756 0.680799 7.80604 0.303347C7.44452 -0.0741048 6.83066 -0.103296 6.43496 0.238146L4.03002 2.31328L1.62509 0.238146Z" fill="#EEEEED"/>
</svg>
