<svg width="1860" height="263" viewBox="0 0 1860 263" fill="none" xmlns="http://www.w3.org/2000/svg">
<path d="M41.464 258.251H0V55.1707C0 22.0683 17.6651 0 54.4674 0C87.3441 0 102.31 18.1275 112.124 47.0265L181.313 209.123C184.012 215.166 188.673 219.632 196.524 219.632C205.357 219.632 210.509 214.115 210.509 205.445V4.72889H252.219V207.284C252.219 240.649 234.308 262.98 197.751 262.98C164.874 262.98 149.663 244.853 139.849 215.954L70.6605 53.8571C67.471 46.2383 63.3001 43.0857 55.9396 43.0857C46.371 43.0857 41.464 48.6028 41.464 57.7979V258.251Z" fill="#EEEEED"/>
<path d="M473.764 4.73096V49.1303H378.323C340.785 49.1303 329.499 68.3087 329.499 91.9532V116.123H444.322V158.158H329.499V258.516H288.035V92.4787C288.035 41.7742 312.569 4.99369 375.379 4.99369H473.764V4.73096Z" fill="#EEEEED"/>
<path d="M608.947 4.73096V49.1303H542.457V258.516H502.466V49.1303H435.976V4.73096H608.947Z" fill="#EEEEED"/>
<path d="M973.829 4.73096C1042.53 4.73096 1080.8 46.7658 1080.8 132.149C1080.8 217.007 1042.77 258.516 973.829 258.516H941.443C872.255 258.516 834.471 217.27 834.471 132.149C834.471 46.7658 872.746 4.73096 941.443 4.73096H973.829ZM941.689 48.8675C896.054 48.8675 875.935 73.563 875.935 131.886C875.935 189.684 895.563 213.854 941.689 213.854H974.075C1019.71 213.854 1039.34 189.684 1039.34 131.624C1039.34 73.8257 1019.71 48.8675 974.075 48.8675H941.689Z" fill="#EEEEED"/>
<path d="M1243.45 4.73096C1296.69 4.73096 1319.51 39.9351 1319.51 80.6564C1319.51 112.183 1305.53 146.073 1269.21 156.844L1324.42 258.253H1278.54L1224.56 160.26H1162.73C1158.81 160.26 1156.84 162.099 1156.84 166.565V258.253H1115.38V157.895C1115.38 129.259 1126.67 117.7 1152.67 117.7H1244.92C1268.48 117.7 1277.8 100.36 1277.8 82.4954C1277.8 64.3679 1267.74 49.1303 1244.92 49.1303H1115.13V4.73096H1243.45Z" fill="#EEEEED"/>
<path d="M1485.6 4.73096C1541.3 4.73096 1564.85 32.8417 1564.85 74.3511C1564.85 103.776 1552.83 121.378 1530.75 130.835C1553.32 140.556 1565.83 159.472 1565.83 188.633C1565.83 229.355 1542.28 258.516 1486.58 258.516H1381.33C1368.08 258.516 1361.7 251.686 1361.7 237.762V25.4857C1361.7 11.5616 1368.08 4.73096 1381.33 4.73096H1485.6ZM1402.43 111.657H1486.58C1511.12 111.657 1523.14 101.937 1523.14 81.1818C1523.14 61.2153 1512.34 48.0794 1487.07 48.0794H1407.09C1404.39 48.0794 1402.43 49.6557 1402.43 52.5456V111.657ZM1402.43 210.176C1402.43 213.066 1404.15 214.38 1407.09 214.38H1487.81C1512.84 214.38 1524.37 202.032 1524.37 181.277C1524.37 159.734 1512.1 148.7 1487.81 148.7H1402.43V210.176Z" fill="#EEEEED"/>
<path d="M1641.4 4.73096V258.516H1599.93V4.73096H1641.4Z" fill="#EEEEED"/>
<path d="M1860 4.73096V49.1303H1790.81V258.516H1749.1V49.1303H1679.91V4.73096H1860Z" fill="#EEEEED"/>
</svg>
