<svg width="175" height="41" viewBox="0 0 175 41" fill="none" xmlns="http://www.w3.org/2000/svg">
<path d="M39.8662 3.26884C39.3078 2.34267 38.5178 1.56632 37.5916 0.994271C36.5565 0.367745 35.3443 0 34.0504 0H6.81008C3.05091 0 0 3.05091 0 6.81008V34.0504C0 35.3443 0.367745 36.5565 0.994271 37.5916C1.5527 38.5178 2.34267 39.2941 3.26884 39.8662C4.30397 40.4927 5.51616 40.8605 6.81008 40.8605H34.0504C37.8095 40.8605 40.8605 37.8095 40.8605 34.0504V6.81008C40.8605 5.51616 40.4927 4.30397 39.8662 3.26884ZM28.9292 29.0245C20.3213 37.6325 9.52048 40.7924 4.82153 36.0798C0.463084 31.7213 2.84661 22.16 10.0517 13.9334C11.2775 12.4624 12.6395 11.114 14.1241 9.88823L14.1377 9.87461C20.6481 4.29035 27.9485 1.70252 32.8246 3.09177C32.879 3.10539 32.9199 3.11901 32.9744 3.13263C33.6145 3.3097 34.2274 3.5821 34.7722 3.93622C34.8676 3.9907 34.9493 4.04518 35.031 4.11329C35.0855 4.15415 35.14 4.18139 35.1945 4.22225C35.1945 4.22225 35.2081 4.22225 35.2081 4.23587C35.4805 4.44017 35.7393 4.65809 35.9844 4.90325C40.697 9.61583 37.5371 20.4166 28.9292 29.0245Z" fill="#EEEEED"/>
<path d="M20.4307 23.8352C22.3112 23.8352 23.8357 22.3107 23.8357 20.4302C23.8357 18.5496 22.3112 17.0251 20.4307 17.0251C18.5501 17.0251 17.0256 18.5496 17.0256 20.4302C17.0256 22.3107 18.5501 23.8352 20.4307 23.8352Z" fill="#EEEEED"/>
<path d="M58.2127 27.7698H55.5571V15.6233C55.5571 13.6434 56.6885 12.3235 59.0455 12.3235C61.1511 12.3235 62.1096 13.4077 62.7382 15.1362L67.1693 24.8313C67.3422 25.1928 67.6407 25.4599 68.1436 25.4599C68.7093 25.4599 69.0392 25.1299 69.0392 24.6114V12.6063H71.7105V24.7214C71.7105 26.717 70.5634 28.0526 68.2221 28.0526C66.1165 28.0526 65.1423 26.9684 64.5138 25.2399L60.0826 15.5447C59.8783 15.089 59.6112 14.9005 59.1398 14.9005C58.527 14.9005 58.2127 15.2305 58.2127 15.7804V27.7698Z" fill="#EEEEED"/>
<path d="M85.8994 12.6064V15.262H79.7869C77.3828 15.262 76.66 16.4091 76.66 17.8233V19.2689H84.0138V21.7831H76.66V27.7856H74.0044V17.8547C74.0044 14.822 75.5757 12.6222 79.5984 12.6222H85.8994V12.6064Z" fill="#EEEEED"/>
<path d="M94.5567 12.6064V15.262H90.2984V27.7856H87.7371V15.262H83.4788V12.6064H94.5567Z" fill="#EEEEED"/>
<path d="M117.925 12.6064C122.325 12.6064 124.776 15.1206 124.776 20.2274C124.776 25.3029 122.341 27.7856 117.925 27.7856H115.851C111.42 27.7856 109 25.3186 109 20.2274C109 15.1206 111.451 12.6064 115.851 12.6064H117.925ZM115.867 15.2463C112.944 15.2463 111.656 16.7234 111.656 20.2117C111.656 23.6687 112.913 25.1143 115.867 25.1143H117.941C120.864 25.1143 122.121 23.6687 122.121 20.196C122.121 16.7391 120.864 15.2463 117.941 15.2463H115.867Z" fill="#EEEEED"/>
<path d="M135.194 12.6064C138.604 12.6064 140.065 14.712 140.065 17.1476C140.065 19.0332 139.169 21.0603 136.844 21.7045L140.379 27.7699H137.441L133.984 21.9088H130.024C129.773 21.9088 129.647 22.0188 129.647 22.2859V27.7699H126.991V21.7674C126.991 20.0546 127.714 19.3632 129.38 19.3632H135.288C136.796 19.3632 137.394 18.3261 137.394 17.2576C137.394 16.1734 136.749 15.262 135.288 15.262H126.976V12.6064H135.194Z" fill="#EEEEED"/>
<path d="M150.702 12.6064C154.269 12.6064 155.777 14.2878 155.777 16.7705C155.777 18.5304 155.007 19.5832 153.593 20.1489C155.039 20.7303 155.84 21.8616 155.84 23.6058C155.84 26.0414 154.332 27.7856 150.765 27.7856H144.024C143.175 27.7856 142.767 27.377 142.767 26.5442V13.8478C142.767 13.015 143.175 12.6064 144.024 12.6064H150.702ZM145.375 19.0018H150.765C152.336 19.0018 153.106 18.4204 153.106 17.179C153.106 15.9848 152.415 15.1992 150.796 15.1992H145.674C145.501 15.1992 145.375 15.2934 145.375 15.4663V19.0018ZM145.375 24.8943C145.375 25.0672 145.485 25.1457 145.674 25.1457H150.843C152.446 25.1457 153.185 24.4072 153.185 23.1659C153.185 21.8774 152.399 21.2174 150.843 21.2174H145.375V24.8943Z" fill="#EEEEED"/>
<path d="M160.68 12.6064V27.7856H158.024V12.6064H160.68Z" fill="#EEEEED"/>
<path d="M174.68 12.6064V15.262H170.249V27.7856H167.578V15.262H163.146V12.6064H174.68Z" fill="#EEEEED"/>
</svg>
    