

<svg width="19" height="19" viewBox="0 0 19 19" fill="none" xmlns="http://www.w3.org/2000/svg">
<g clip-path="url(#clip0_525_6939)">
<path d="M5.97721 17.2183C13.1453 17.2183 17.067 11.2782 17.067 6.12858C17.067 5.96158 17.0633 5.79088 17.0558 5.62389C17.8187 5.07218 18.4771 4.3888 19 3.60588C18.2895 3.922 17.5351 4.12845 16.7627 4.21819C17.576 3.73066 18.185 2.96477 18.4768 2.0625C17.7116 2.51596 16.8748 2.83584 16.0023 3.00842C15.4144 2.38376 14.6371 1.97015 13.7906 1.83156C12.9441 1.69297 12.0754 1.8371 11.319 2.24168C10.5626 2.64626 9.96059 3.28875 9.60596 4.06981C9.25133 4.85087 9.16388 5.72701 9.35713 6.56276C7.80781 6.48501 6.29212 6.08254 4.90832 5.38143C3.52452 4.68033 2.30351 3.69624 1.32443 2.49297C0.826816 3.35092 0.674545 4.36616 0.898566 5.33234C1.12259 6.29853 1.70609 7.14317 2.53049 7.69459C1.91158 7.67494 1.30623 7.50831 0.764453 7.20846V7.2567C0.763899 8.15706 1.07516 9.02982 1.64533 9.72663C2.2155 10.4234 3.00938 10.9013 3.89203 11.079C3.31871 11.2358 2.71699 11.2587 2.13342 11.1458C2.38249 11.9201 2.86708 12.5973 3.51957 13.083C4.17206 13.5686 4.95989 13.8384 5.77311 13.8547C4.3925 14.9392 2.68705 15.5275 0.931445 15.5247C0.620102 15.5242 0.309066 15.5051 0 15.4675C1.78351 16.6117 3.85821 17.2195 5.97721 17.2183Z" fill="#EEEEED"/>
</g>
<defs>
<clipPath id="clip0_525_6939">
<rect width="19" height="19" fill="white"/>
</clipPath>
</defs>
</svg>
