<svg id="svg" version="1.1" xmlns="http://www.w3.org/2000/svg" xmlns:xlink="http://www.w3.org/1999/xlink" width="400" height="400" viewBox="0, 0, 400,400"><g id="svgg"><path id="path0" d="M194.400 0.391 C 192.072 0.815,189.320 1.682,187.135 2.679 C 185.342 3.497,38.639 88.162,35.900 89.959 C 29.513 94.150,24.960 101.028,23.162 109.200 L 22.700 111.300 22.700 199.700 C 22.700 284.106,22.716 288.186,23.061 290.000 C 24.599 298.086,29.290 305.302,35.900 309.750 C 36.560 310.194,43.127 314.035,50.493 318.286 C 57.859 322.537,63.934 326.091,63.993 326.184 C 64.424 326.864,102.624 348.528,102.803 348.194 C 102.911 347.993,104.876 342.670,107.171 336.364 C 109.466 330.059,129.229 275.870,151.088 215.945 C 181.860 131.589,190.833 106.787,190.833 106.092 C 190.833 105.010,190.326 104.068,189.410 103.451 L 188.741 103.000 169.312 103.000 C 147.727 103.000,148.459 102.958,146.455 104.327 C 145.298 105.119,144.403 106.329,143.829 107.879 C 143.622 108.441,127.586 152.415,108.195 205.600 C 88.804 258.785,72.885 302.358,72.819 302.430 C 72.566 302.705,49.943 289.442,49.083 288.515 C 47.441 286.744,47.590 295.993,47.648 199.600 L 47.700 113.700 48.130 112.770 C 48.366 112.259,48.913 111.494,49.344 111.070 C 50.201 110.228,197.318 25.226,198.640 24.809 C 199.708 24.472,201.363 24.833,203.081 25.778 C 214.365 31.985,350.248 110.759,350.917 111.483 C 352.559 113.258,352.410 104.020,352.352 200.300 L 352.300 286.100 351.742 287.236 C 350.922 288.907,350.888 288.929,338.299 296.186 C 331.920 299.863,318.060 307.861,307.500 313.958 C 296.940 320.056,285.060 326.915,281.100 329.201 C 259.674 341.569,233.037 356.952,219.000 365.065 C 199.406 376.390,200.460 375.900,198.063 374.811 C 195.319 373.565,165.192 355.911,165.309 355.618 C 167.223 350.818,255.883 107.019,255.951 106.369 C 256.068 105.234,255.454 103.989,254.476 103.385 C 253.850 102.998,253.451 102.992,233.969 103.045 L 214.100 103.100 212.877 103.665 C 211.515 104.295,210.240 105.487,209.633 106.700 C 209.155 107.655,118.200 356.904,118.201 357.256 C 118.201 357.390,126.883 362.495,137.495 368.600 C 148.106 374.705,163.473 383.549,171.644 388.253 C 187.281 397.256,188.586 397.918,192.631 398.899 C 199.857 400.651,208.218 399.632,214.400 396.246 C 217.581 394.504,243.141 379.708,243.500 379.401 C 243.943 379.022,281.386 357.419,282.230 357.055 C 283.041 356.706,295.923 349.258,297.400 348.285 C 298.993 347.236,335.772 326.000,335.997 326.000 C 336.231 326.000,362.677 310.708,364.100 309.750 C 370.668 305.328,375.209 298.414,376.845 290.346 L 377.300 288.100 377.300 199.700 L 377.300 111.300 376.838 109.200 C 375.044 101.046,370.507 94.190,364.100 89.953 C 361.972 88.546,215.673 4.141,213.300 2.952 C 208.085 0.338,200.402 -0.703,194.400 0.391 " stroke="none" fill="#cae3f3" fill-rule="evenodd"></path><path id="path1" d="M264.200 139.225 C 262.669 139.835,263.675 137.366,252.474 168.014 L 242.721 194.700 242.710 196.500 L 242.700 198.300 265.681 261.300 C 278.320 295.950,288.731 324.379,288.816 324.475 C 288.941 324.617,326.485 303.145,327.073 302.596 C 327.168 302.507,314.006 266.164,297.823 221.834 C 281.640 177.505,268.400 141.173,268.400 141.098 C 268.400 139.863,265.663 138.641,264.200 139.225 M230.990 228.851 C 229.955 229.548,230.188 228.955,219.864 257.200 L 210.104 283.900 210.102 285.800 L 210.100 287.700 222.464 321.600 C 229.264 340.245,234.889 355.559,234.964 355.631 C 235.197 355.854,273.306 333.717,273.253 333.390 C 273.068 332.259,235.532 229.853,235.153 229.447 C 234.081 228.299,232.207 228.030,230.990 228.851 M316.983 336.867 C 297.180 348.328,297.240 348.293,297.409 348.470 C 297.554 348.623,335.860 326.521,335.957 326.229 C 336.097 325.810,335.795 325.979,316.983 336.867 M262.727 368.195 C 245.766 378.003,242.526 379.927,243.600 379.555 C 243.987 379.421,281.839 357.610,282.090 357.377 C 282.960 356.567,279.246 358.643,262.727 368.195 " stroke="none" fill="#14acfb" fill-rule="evenodd"></path><path id="path2" d="M199.028 24.836 C 197.736 25.059,50.686 109.938,49.392 111.207 C 48.802 111.785,48.346 112.469,48.133 113.093 C 47.824 114.000,47.800 120.316,47.802 200.086 L 47.804 286.100 48.272 287.104 C 48.529 287.657,49.022 288.377,49.367 288.704 C 50.179 289.475,72.631 302.457,72.801 302.254 C 72.872 302.169,88.841 258.450,108.286 205.100 C 127.732 151.750,143.850 107.634,144.103 107.065 C 144.729 105.661,146.011 104.322,147.372 103.654 L 148.500 103.100 168.400 102.999 C 188.083 102.899,188.310 102.902,189.186 103.304 C 190.309 103.818,191.061 105.089,190.960 106.300 C 190.923 106.740,172.997 156.150,151.125 216.100 C 129.252 276.050,109.556 330.050,107.356 336.100 C 105.156 342.150,103.197 347.468,103.003 347.918 L 102.651 348.735 109.544 352.692 C 118.225 357.675,118.294 357.713,118.144 357.471 C 117.965 357.182,209.238 107.169,209.932 106.047 C 210.641 104.899,211.836 103.965,213.289 103.421 C 214.374 103.015,214.701 103.009,234.214 102.995 L 254.038 102.981 254.719 103.501 C 255.619 104.187,256.049 105.064,256.035 106.185 C 256.026 106.886,245.432 136.151,210.712 231.378 C 185.790 299.731,165.400 355.720,165.400 355.798 C 165.400 356.078,197.517 374.495,198.680 374.883 C 200.679 375.548,200.407 375.680,218.219 365.414 C 227.064 360.316,234.413 356.042,234.551 355.915 C 234.748 355.733,232.187 348.515,222.370 321.592 L 209.938 287.500 209.944 285.800 L 209.951 284.100 219.742 257.300 C 225.128 242.560,229.688 230.204,229.877 229.841 C 230.518 228.609,232.198 227.956,233.628 228.385 C 235.453 228.932,233.893 224.962,254.481 281.455 C 264.855 309.920,273.395 333.261,273.458 333.325 C 273.756 333.623,288.500 324.823,288.484 324.358 C 288.475 324.106,278.158 295.640,265.559 261.100 C 241.892 196.223,242.218 197.162,242.673 195.100 C 242.980 193.713,262.025 141.436,262.550 140.539 C 263.758 138.476,267.183 138.513,268.209 140.600 C 268.398 140.985,281.764 177.525,297.912 221.800 C 314.060 266.075,327.287 302.323,327.304 302.351 C 327.386 302.484,349.970 289.309,350.468 288.838 C 350.780 288.542,351.275 287.895,351.568 287.400 L 352.100 286.500 352.151 200.220 L 352.202 113.940 351.732 112.920 C 351.474 112.359,350.983 111.628,350.640 111.296 C 350.108 110.779,322.267 94.653,220.293 35.798 C 201.349 24.865,200.725 24.543,199.028 24.836 " stroke="none" fill="#243444" fill-rule="evenodd"></path><path id="path3" d="M232.352 228.341 C 232.601 228.389,232.961 228.387,233.152 228.337 C 233.344 228.287,233.140 228.248,232.700 228.250 C 232.260 228.253,232.104 228.294,232.352 228.341 M209.854 285.800 C 209.854 286.295,209.893 286.498,209.941 286.250 C 209.989 286.002,209.989 285.598,209.941 285.350 C 209.893 285.103,209.854 285.305,209.854 285.800 " stroke="none" fill="#2a85bd" fill-rule="evenodd"></path><path id="path4" d="M210.687 105.050 L 210.100 105.700 210.750 105.113 C 211.356 104.565,211.492 104.400,211.337 104.400 C 211.303 104.400,211.010 104.692,210.687 105.050 M47.699 200.000 C 47.699 247.245,47.722 266.572,47.750 242.950 C 47.778 219.327,47.778 180.672,47.750 157.050 C 47.722 133.427,47.699 152.755,47.699 200.000 M352.299 199.900 C 352.299 247.090,352.322 266.365,352.350 242.734 C 352.378 219.102,352.378 180.492,352.350 156.934 C 352.322 133.375,352.299 152.710,352.299 199.900 M350.487 288.850 L 349.900 289.500 350.550 288.913 C 351.156 288.365,351.292 288.200,351.137 288.200 C 351.103 288.200,350.810 288.493,350.487 288.850 " stroke="none" fill="#6e7c8c" fill-rule="evenodd"></path></g></svg>