<svg width="16" height="16" viewBox="0 0 16 16" fill="none" xmlns="http://www.w3.org/2000/svg">
<g clip-path="url(#clip0_1146_3174)">
<path d="M15.3804 8.30643C15.3804 4.05924 11.9374 0.616211 7.69022 0.616211C3.44303 0.616211 0 4.05924 0 8.30643C0 12.1448 2.81219 15.3263 6.48863 15.9032V10.5294H4.53603V8.30643H6.48863V6.61218C6.48863 4.68482 7.63675 3.6202 9.39334 3.6202C10.2345 3.6202 11.1148 3.7704 11.1148 3.7704V5.66292H10.1451C9.18982 5.66292 8.89182 6.25576 8.89182 6.86452V8.30643H11.0247L10.6837 10.5294H8.89182V15.9032C12.5683 15.3263 15.3804 12.1448 15.3804 8.30643Z" fill="#EEEEED"/>
</g>
<defs>
<clipPath id="clip0_1146_3174">
<rect width="15.3804" height="15.3804" fill="white" transform="translate(0 0.616211)"/>
</clipPath>
</defs>
</svg>
