<svg width="16" height="16" viewBox="0 0 16 16" fill="none" xmlns="http://www.w3.org/2000/svg">
<g clip-path="url(#clip0_1146_3176)">
<path d="M7.69022 1.90437C9.74496 1.90437 9.98828 1.91338 10.7964 1.94943C11.5474 1.98248 11.9529 2.10864 12.2233 2.21378C12.5807 2.35197 12.8391 2.52019 13.1064 2.78755C13.3768 3.05791 13.542 3.31325 13.6802 3.67072C13.7853 3.94108 13.9115 4.34962 13.9445 5.09762C13.9806 5.9087 13.9896 6.15202 13.9896 8.20375C13.9896 10.2585 13.9806 10.5018 13.9445 11.3099C13.9115 12.0609 13.7853 12.4664 13.6802 12.7368C13.542 13.0942 13.3738 13.3526 13.1064 13.6199C12.8361 13.8903 12.5807 14.0555 12.2233 14.1937C11.9529 14.2989 11.5443 14.425 10.7964 14.4581C9.98528 14.4941 9.74195 14.5031 7.69022 14.5031C5.63549 14.5031 5.39217 14.4941 4.5841 14.4581C3.8331 14.425 3.42756 14.2989 3.1572 14.1937C2.79972 14.0555 2.54138 13.8873 2.27402 13.6199C2.00366 13.3496 1.83844 13.0942 1.70026 12.7368C1.59512 12.4664 1.46895 12.0579 1.43591 11.3099C1.39986 10.4988 1.39085 10.2555 1.39085 8.20375C1.39085 6.14902 1.39986 5.90569 1.43591 5.09762C1.46895 4.34662 1.59512 3.94108 1.70026 3.67072C1.83844 3.31325 2.00667 3.0549 2.27402 2.78755C2.54438 2.51719 2.79972 2.35197 3.1572 2.21378C3.42756 2.10864 3.8361 1.98248 4.5841 1.94943C5.39217 1.91338 5.63549 1.90437 7.69022 1.90437ZM7.69022 0.519531C5.60245 0.519531 5.3411 0.528543 4.52101 0.564591C3.70392 0.600639 3.14218 0.732815 2.65553 0.922066C2.14786 1.12033 1.71828 1.38168 1.29172 1.81125C0.862146 2.23782 0.600799 2.66739 0.402535 3.17206C0.213284 3.66171 0.0811078 4.22045 0.0450599 5.03754C0.00901198 5.86063 0 6.12198 0 8.20975C0 10.2975 0.00901198 10.5589 0.0450599 11.379C0.0811078 12.1961 0.213284 12.7578 0.402535 13.2444C0.600799 13.7521 0.862146 14.1817 1.29172 14.6083C1.71828 15.0348 2.14786 15.2992 2.65253 15.4944C3.14218 15.6837 3.70092 15.8159 4.51801 15.8519C5.3381 15.888 5.59944 15.897 7.68722 15.897C9.775 15.897 10.0363 15.888 10.8564 15.8519C11.6735 15.8159 12.2353 15.6837 12.7219 15.4944C13.2266 15.2992 13.6562 15.0348 14.0827 14.6083C14.5093 14.1817 14.7736 13.7521 14.9689 13.2475C15.1582 12.7578 15.2903 12.1991 15.3264 11.382C15.3624 10.5619 15.3714 10.3005 15.3714 8.21276C15.3714 6.12498 15.3624 5.86364 15.3264 5.04355C15.2903 4.22646 15.1582 3.66471 14.9689 3.17807C14.7796 2.66739 14.5183 2.23782 14.0887 1.81125C13.6622 1.38468 13.2326 1.12033 12.7279 0.92507C12.2383 0.735819 11.6795 0.603643 10.8624 0.567595C10.0393 0.528543 9.778 0.519531 7.69022 0.519531Z" fill="#EEEEED"/>
<path d="M7.69049 4.25977C5.50959 4.25977 3.74023 6.02912 3.74023 8.21002C3.74023 10.3909 5.50959 12.1603 7.69049 12.1603C9.87139 12.1603 11.6407 10.3909 11.6407 8.21002C11.6407 6.02912 9.87139 4.25977 7.69049 4.25977ZM7.69049 10.7724C6.27561 10.7724 5.12808 9.6249 5.12808 8.21002C5.12808 6.79514 6.27561 5.64761 7.69049 5.64761C9.10537 5.64761 10.2529 6.79514 10.2529 8.21002C10.2529 9.6249 9.10537 10.7724 7.69049 10.7724Z" fill="#EEEEED"/>
<path d="M12.719 4.10289C12.719 4.61357 12.3044 5.02512 11.7967 5.02512C11.2861 5.02512 10.8745 4.61057 10.8745 4.10289C10.8745 3.59221 11.2891 3.18066 11.7967 3.18066C12.3044 3.18066 12.719 3.59522 12.719 4.10289Z" fill="#EEEEED"/>
</g>
<defs>
<clipPath id="clip0_1146_3176">
<rect width="15.3804" height="15.3804" fill="white" transform="translate(0 0.519531)"/>
</clipPath>
</defs>
</svg>
