<svg width="17" height="17" viewBox="0 0 17 17" fill="none" xmlns="http://www.w3.org/2000/svg">
<path d="M10.0834 6.57703C9.86604 6.35969 9.51365 6.3597 9.29631 6.57705C9.07897 6.79441 9.07898 7.1468 9.29633 7.36414L10.0834 6.57703ZM9.68986 10.3425L9.29633 9.94898L9.29632 9.949L9.68986 10.3425ZM7.4414 12.591L7.83494 12.9845L7.4414 12.591ZM4.06945 9.21905L4.46299 9.61259L4.06945 9.21905ZM5.58722 8.48836C5.80457 8.27101 5.80457 7.91862 5.58722 7.70127C5.36987 7.48393 5.01749 7.48393 4.80014 7.70127L5.58722 8.48836ZM7.04802 9.61271C7.26537 9.83005 7.61776 9.83004 7.8351 9.61269C8.05244 9.39534 8.05243 9.04295 7.83508 8.82561L7.04802 9.61271ZM7.44155 5.84721L7.83508 6.24076L7.83509 6.24075L7.44155 5.84721ZM9.69001 3.59874L10.0835 3.99229L9.69001 3.59874ZM13.062 3.59874L12.6684 3.99229V3.99229L13.062 3.59874ZM13.062 6.9707L13.4555 7.36424V7.36424L13.062 6.9707ZM11.5442 7.70139C11.3268 7.91873 11.3268 8.27112 11.5442 8.48847C11.7615 8.70581 12.1139 8.70581 12.3313 8.48847L11.5442 7.70139ZM9.29633 7.36414C9.63912 7.7069 9.8317 8.1718 9.8317 8.65656H10.9448C10.9448 7.87658 10.6349 7.12855 10.0834 6.57703L9.29633 7.36414ZM9.8317 8.65656C9.8317 9.14132 9.63912 9.60622 9.29633 9.94898L10.0834 10.7361C10.6349 10.1846 10.9448 9.43654 10.9448 8.65656H9.8317ZM9.29632 9.949L7.04786 12.1975L7.83494 12.9845L10.0834 10.7361L9.29632 9.949ZM7.04786 12.1975C6.33407 12.9113 5.17678 12.9113 4.46299 12.1975L3.67591 12.9845C4.82439 14.133 6.68645 14.133 7.83494 12.9845L7.04786 12.1975ZM4.46299 12.1975C3.7492 11.4837 3.7492 10.3264 4.46299 9.61259L3.67591 8.82551C2.52742 9.97399 2.52742 11.8361 3.67591 12.9845L4.46299 12.1975ZM4.46299 9.61259L5.58722 8.48836L4.80014 7.70127L3.67591 8.82551L4.46299 9.61259ZM7.83508 8.82561C7.49229 8.48284 7.29971 8.01794 7.29971 7.53318H6.18661C6.18661 8.31316 6.49647 9.0612 7.04802 9.61271L7.83508 8.82561ZM7.29971 7.53318C7.29971 7.04843 7.49229 6.58352 7.83508 6.24076L7.04802 5.45366C6.49647 6.00517 6.18661 6.7532 6.18661 7.53318H7.29971ZM7.83509 6.24075L10.0835 3.99229L9.29647 3.2052L7.04801 5.45367L7.83509 6.24075ZM10.0835 3.99229C10.7973 3.27849 11.9546 3.27849 12.6684 3.99229L13.4555 3.2052C12.307 2.05672 10.445 2.05672 9.29647 3.2052L10.0835 3.99229ZM12.6684 3.99229C13.3822 4.70608 13.3822 5.86336 12.6684 6.57716L13.4555 7.36424C14.604 6.21575 14.604 4.35369 13.4555 3.2052L12.6684 3.99229ZM12.6684 6.57716L11.5442 7.70139L12.3313 8.48847L13.4555 7.36424L12.6684 6.57716Z" fill="#EEEEED"/>
</svg>
