<svg width="16" height="17" viewBox="0 0 16 17" fill="none" xmlns="http://www.w3.org/2000/svg">
<g clip-path="url(#clip0_1146_3172)">
<path d="M4.83853 14.6514C10.641 14.6514 13.8157 9.84288 13.8157 5.67424C13.8157 5.53906 13.8127 5.40087 13.8067 5.26569C14.4242 4.81908 14.9572 4.2659 15.3804 3.63212C14.8053 3.88801 14.1946 4.05514 13.5693 4.12778C14.2277 3.73313 14.7207 3.11314 14.9569 2.38276C14.3375 2.74983 13.6601 3.00877 12.9538 3.14848C12.4779 2.64281 11.8487 2.308 11.1634 2.19581C10.4782 2.08362 9.77504 2.2003 9.16274 2.5278C8.55043 2.85531 8.06307 3.3754 7.776 4.00767C7.48893 4.63994 7.41814 5.34917 7.57457 6.0257C6.3204 5.96277 5.09345 5.63697 3.97327 5.06942C2.85309 4.50188 1.86468 3.70527 1.07213 2.73122C0.669306 3.42573 0.546042 4.24756 0.727387 5.02969C0.908731 5.81181 1.38108 6.49554 2.04842 6.94192C1.54742 6.92602 1.05739 6.79113 0.618823 6.5484V6.58745C0.618374 7.31628 0.87034 8.02278 1.33189 8.58685C1.79344 9.15092 2.43609 9.53774 3.15059 9.68156C2.68649 9.80854 2.19939 9.82705 1.727 9.73564C1.92862 10.3624 2.32089 10.9107 2.84908 11.3038C3.37727 11.6969 4.01502 11.9153 4.67331 11.9286C3.55572 12.8064 2.17516 13.2826 0.754003 13.2803C0.501971 13.28 0.250188 13.2645 0 13.2341C1.44375 14.1603 3.12321 14.6523 4.83853 14.6514Z" fill="#EEEEED"/>
</g>
<defs>
<clipPath id="clip0_1146_3172">
<rect width="15.3804" height="15.3804" fill="white" transform="translate(0 0.712891)"/>
</clipPath>
</defs>
</svg>
